<svg version="1.0" xmlns="http://www.w3.org/2000/svg"
 width="856.000000pt" height="244.000000pt" viewBox="0 0 856.000000 244.000000"
 preserveAspectRatio="xMidYMid meet">
<g transform="translate(0.000000,244.000000) scale(0.100000,-0.100000)"
fill="#000000" stroke="none">
<path d="M7655 2359 c-11 -4 -32 -8 -46 -8 -24 -1 -30 -10 -59 -83 -18 -46
-39 -96 -45 -113 -33 -77 -81 -196 -105 -260 -65 -167 -258 -643 -273 -672
-24 -46 -74 -80 -129 -88 -46 -7 -48 -8 -48 -41 l0 -34 220 0 220 0 0 34 c0
32 -2 34 -42 40 -24 4 -54 14 -67 23 -21 14 -23 20 -18 65 5 43 36 148 69 231
l10 27 194 0 c107 0 194 -1 194 -3 0 -1 20 -61 45 -132 25 -72 45 -139 45
-151 0 -28 -27 -51 -72 -59 -35 -7 -38 -10 -38 -41 l0 -34 280 0 280 0 0 34
c0 32 -2 34 -46 41 -65 9 -110 58 -152 165 -19 47 -44 112 -57 145 -21 53
-121 325 -247 670 -94 260 -91 253 -113 244z m-56 -514 c28 -83 59 -175 71
-205 11 -30 20 -56 20 -57 0 -2 -70 -3 -155 -3 -85 0 -155 4 -155 9 0 5 20 66
46 137 80 227 105 287 115 277 5 -5 31 -76 58 -158z"/>
<path d="M80 1703 c0 -357 4 -684 9 -729 26 -223 157 -451 353 -610 414 -339
1036 -303 1409 82 96 98 151 180 195 287 64 159 64 155 64 923 l0 694 -1015 0
-1015 0 0 -647z m1955 485 c3 -46 5 -346 3 -668 -4 -653 -2 -633 -78 -796
-130 -281 -405 -472 -748 -521 -99 -14 -128 -15 -219 -4 -195 24 -355 90 -502
208 -148 118 -245 256 -312 443 l-24 65 -5 678 -5 677 942 0 941 0 7 -82z"/>
<path d="M192 1593 c4 -617 4 -629 26 -702 94 -309 351 -548 672 -626 107 -26
306 -24 417 4 283 73 502 245 610 479 69 148 66 115 70 792 2 338 1 630 -2
648 l-6 32 -895 0 -895 0 3 -627z m1315 541 c10 -26 -16 -126 -51 -199 -35
-71 -131 -179 -189 -213 -29 -17 -34 -29 -41 -97 -4 -35 0 -46 28 -78 l32 -37
24 24 c30 29 120 79 175 96 22 7 35 15 28 17 -21 7 -92 -17 -121 -42 -33 -28
-52 -32 -52 -12 0 20 50 64 100 86 47 21 164 29 174 12 10 -15 -57 -104 -102
-135 -35 -25 -55 -31 -113 -34 -67 -4 -72 -6 -90 -36 -16 -27 -19 -51 -19
-171 l0 -139 170 -253 c94 -139 173 -266 176 -282 10 -46 -3 -80 -39 -101 -31
-19 -52 -20 -487 -20 -435 0 -456 1 -487 20 -36 21 -49 55 -39 100 3 17 82
144 176 283 l170 252 0 152 0 152 -27 3 c-22 2 -28 8 -28 28 0 24 3 25 60 25
l60 0 3 -190 2 -190 -176 -261 c-107 -159 -174 -270 -172 -281 3 -17 25 -18
458 -18 l455 0 3 22 c2 12 -11 42 -31 70 -19 26 -98 142 -176 257 l-141 209 0
164 c0 122 -4 171 -14 191 -19 36 -70 82 -131 118 l-50 30 -80 -23 c-106 -30
-140 -29 -211 7 -71 35 -124 85 -174 162 -37 56 -68 143 -56 155 14 14 165 14
246 0 176 -30 286 -118 306 -244 5 -34 12 -42 58 -66 61 -32 66 -33 66 -8 0
10 7 38 15 62 15 40 14 50 -1 112 -23 97 -12 128 73 206 36 34 70 61 75 61 4
0 25 11 46 23 34 22 85 44 105 46 4 1 10 -6 14 -15z"/>
<path d="M1287 1868 c-35 -47 -50 -78 -37 -78 5 0 10 5 10 11 0 6 13 31 30 55
34 51 32 59 -3 12z"/>
<path d="M830 1801 c54 -17 117 -55 154 -95 l39 -41 -32 47 c-37 56 -104 98
-152 97 -31 -1 -32 -1 -9 -8z"/>
<path d="M2740 2306 c0 -33 1 -34 50 -41 71 -10 106 -42 115 -103 11 -85 -40
-731 -70 -892 -18 -91 -48 -125 -119 -135 -44 -7 -46 -9 -46 -41 l0 -34 235 0
235 0 0 34 0 34 -59 7 c-47 5 -65 13 -87 36 -29 30 -29 31 -33 177 -3 141 15
599 28 692 l6 45 27 -65 c29 -69 114 -281 180 -445 22 -55 44 -109 48 -120 4
-11 26 -65 48 -120 105 -264 97 -250 129 -253 33 -3 8 -56 269 558 178 419
196 460 205 460 4 0 8 -199 9 -443 l0 -444 -23 -34 c-19 -29 -30 -35 -80 -43
-56 -9 -57 -10 -57 -43 l0 -33 290 0 290 0 0 34 c0 33 -1 34 -54 40 -39 5 -60
14 -77 32 -31 33 -35 87 -45 625 l-7 417 25 25 c18 18 41 27 82 32 56 7 56 8
56 41 l0 34 -199 0 -199 0 -22 -52 c-12 -29 -35 -80 -50 -113 -52 -114 -68
-151 -155 -345 -47 -107 -103 -231 -124 -275 l-39 -80 -27 60 c-14 33 -74 168
-132 300 -57 132 -122 278 -143 325 -21 47 -47 106 -58 133 l-21 47 -200 0
-201 0 0 -34z"/>
<path d="M4660 2306 c0 -33 0 -34 56 -41 66 -8 99 -35 109 -86 3 -19 5 -246 3
-506 -3 -461 -3 -472 -24 -500 -17 -22 -33 -30 -80 -38 -57 -10 -59 -12 -62
-43 l-3 -32 300 0 301 0 0 23 c0 35 -11 43 -65 51 -34 4 -58 14 -75 31 l-25
25 0 510 0 509 23 23 c14 15 43 27 79 33 54 10 57 12 60 43 l4 32 -300 0 -301
0 0 -34z"/>
<path d="M5620 2306 c0 -32 2 -34 48 -40 72 -10 90 -29 102 -111 5 -38 10
-243 10 -455 0 -212 -5 -416 -10 -455 -12 -83 -29 -101 -107 -111 -52 -6 -53
-7 -53 -40 l0 -34 284 0 c374 0 493 16 619 83 122 64 178 151 185 283 3 72 1
87 -22 132 -14 27 -45 66 -68 85 -51 41 -152 82 -225 92 -29 4 -53 10 -53 15
0 4 21 13 46 19 98 25 181 81 222 150 24 40 27 57 27 131 0 94 -18 143 -72
191 -93 85 -184 99 -617 99 l-316 0 0 -34z m608 -61 c76 -32 115 -95 128 -203
12 -114 -36 -208 -127 -246 -20 -9 -73 -18 -118 -22 l-81 -7 0 222 0 222 25
24 c20 21 34 25 80 25 31 0 72 -7 93 -15z m11 -570 c77 -28 116 -61 152 -129
18 -33 20 -53 17 -141 -3 -93 -6 -106 -33 -151 -45 -72 -119 -114 -201 -114
-52 0 -67 4 -93 26 -17 14 -35 42 -41 62 -11 42 -14 455 -2 466 11 12 151 -2
201 -19z"/>
<path d="M3790 744 l0 -66 -31 26 c-35 30 -58 32 -99 11 -30 -16 -60 -61 -60
-90 0 -30 30 -75 61 -90 34 -18 80 -13 100 11 15 18 29 18 29 -1 0 -8 5 -15
10 -15 6 0 10 53 10 140 0 87 -4 140 -10 140 -6 0 -10 -29 -10 -66z m-25 -60
c24 -22 27 -31 22 -67 -8 -56 -38 -81 -91 -74 -53 7 -71 28 -71 83 0 36 5 49
25 64 36 28 81 25 115 -6z"/>
<path d="M8267 803 c-11 -11 -8 -273 3 -273 6 0 10 53 10 140 0 77 -1 140 -3
140 -2 0 -7 -3 -10 -7z"/>
<path d="M2650 665 c0 -166 18 -184 22 -22 l3 112 35 -49 c19 -26 44 -59 55
-72 l21 -24 34 47 c19 27 41 58 48 71 25 43 32 23 32 -90 0 -62 4 -107 8 -100
9 13 8 249 -1 258 -2 3 -30 -31 -61 -76 -31 -44 -61 -78 -66 -75 -5 3 -33 39
-62 80 -28 41 -55 75 -60 75 -4 0 -8 -61 -8 -135z"/>
<path d="M4210 663 c0 -75 3 -134 6 -130 9 8 10 267 2 267 -5 0 -8 -61 -8
-137z"/>
<path d="M5350 665 c0 -83 4 -135 10 -135 6 0 10 52 10 135 0 83 -4 135 -10
135 -6 0 -10 -52 -10 -135z"/>
<path d="M7250 790 c0 -5 5 -10 10 -10 6 0 10 5 10 10 0 6 -4 10 -10 10 -5 0
-10 -4 -10 -10z"/>
<path d="M5800 751 c0 -20 -6 -31 -17 -34 -17 -4 -17 -5 0 -6 14 -1 17 -11 17
-70 0 -38 3 -77 6 -86 8 -21 49 -37 71 -27 14 5 9 8 -17 12 l-35 5 -3 82 -3
82 38 4 38 4 -37 1 c-35 2 -38 4 -38 32 0 17 -4 30 -10 30 -5 0 -10 -13 -10
-29z"/>
<path d="M7050 751 c0 -16 -6 -32 -12 -34 -10 -4 -10 -6 0 -6 8 -1 12 -22 12
-70 0 -38 3 -77 6 -86 8 -21 49 -37 71 -27 14 5 9 8 -17 12 l-35 5 -3 82 -3
82 38 4 38 4 -37 1 c-35 2 -38 4 -38 32 0 17 -4 30 -10 30 -5 0 -10 -13 -10
-29z"/>
<path d="M3065 699 c-27 -24 -35 -39 -35 -66 0 -85 68 -131 145 -99 21 9 36
19 32 22 -3 3 -14 1 -25 -5 -35 -19 -89 -13 -112 11 -11 12 -20 30 -20 40 0
16 10 18 85 18 80 0 85 1 85 21 0 30 -62 89 -94 89 -14 0 -41 -14 -61 -31z
m114 -15 c37 -47 29 -54 -54 -54 -84 0 -95 12 -53 57 30 33 80 31 107 -3z"/>
<path d="M3370 713 c-17 -12 -25 -13 -28 -5 -2 7 -8 12 -13 12 -5 0 -9 -43 -9
-95 0 -57 4 -95 10 -95 6 0 10 30 10 69 0 50 4 74 16 85 38 39 68 41 107 8 13
-12 17 -31 17 -89 0 -42 4 -73 10 -73 6 0 10 31 10 74 0 71 -2 75 -31 100 -35
30 -65 33 -99 9z"/>
<path d="M3973 720 c-27 -11 -63 -66 -63 -95 0 -35 37 -82 73 -94 28 -10 42
-9 71 3 41 17 50 31 10 16 -59 -23 -114 -3 -129 48 -6 22 -5 22 79 22 86 0 86
0 86 26 0 32 -53 84 -84 83 -11 0 -31 -4 -43 -9z m72 -16 c18 -7 47 -58 38
-68 -4 -3 -40 -6 -80 -6 -72 0 -74 1 -68 23 13 45 63 68 110 51z"/>
<path d="M4390 713 c-39 -27 -49 -45 -50 -88 0 -51 20 -80 65 -95 37 -12 105
1 105 21 0 6 -8 6 -19 -1 -51 -27 -119 -3 -135 48 -7 22 -6 22 83 22 50 0 91
4 91 9 0 27 -25 69 -49 84 -37 21 -60 21 -91 0z m92 -20 c9 -10 19 -28 22 -40
7 -22 6 -23 -68 -23 -69 0 -76 2 -76 20 0 51 88 81 122 43z"/>
<path d="M4669 715 c-34 -18 -53 -66 -46 -111 11 -66 76 -97 142 -69 21 8 36
18 32 21 -3 3 -14 1 -25 -5 -49 -26 -132 5 -132 50 0 17 8 19 85 19 47 0 85 4
85 9 0 27 -25 69 -49 84 -35 20 -57 21 -92 2z m93 -22 c9 -10 19 -28 22 -40 7
-22 6 -23 -68 -23 -69 0 -76 2 -76 20 0 49 89 80 122 43z"/>
<path d="M5553 718 c-13 -6 -23 -15 -23 -20 0 -15 -19 -8 -23 10 -3 9 -5 -28
-4 -83 l0 -100 7 73 c7 84 29 115 80 115 49 0 64 -23 71 -111 l6 -77 1 82 c2
77 1 83 -24 102 -29 23 -57 26 -91 9z"/>
<path d="M6023 711 c-33 -21 -46 -48 -45 -94 2 -71 76 -112 147 -83 21 9 36
19 32 22 -3 3 -14 1 -25 -5 -23 -12 -71 -14 -97 -5 -14 6 -45 53 -45 69 0 3
38 5 85 5 l85 0 0 29 c0 20 -9 37 -31 55 -36 31 -63 33 -106 7z m106 -27 c37
-47 29 -54 -59 -54 l-80 0 11 27 c22 58 92 73 128 27z"/>
<path d="M6326 705 c-34 -23 -36 -23 -36 -5 0 11 -4 20 -10 20 -6 0 -10 -38
-10 -95 0 -57 4 -95 10 -95 6 0 10 28 10 64 0 59 2 66 31 90 17 14 37 26 45
26 8 0 14 5 14 10 0 16 -14 12 -54 -15z"/>
<path d="M6522 713 c-20 -14 -25 -14 -33 -2 -5 9 -8 -23 -7 -86 1 -62 3 -77 5
-40 5 89 9 101 48 119 62 30 97 -6 106 -108 l6 -71 1 76 c2 60 -2 81 -15 98
-24 29 -81 36 -111 14z"/>
<path d="M6795 716 c-29 -14 -28 -14 23 -9 57 6 92 -12 92 -48 0 -16 -6 -18
-43 -13 -85 12 -147 -51 -98 -99 27 -28 91 -29 120 -3 19 17 21 17 21 3 0 -10
5 -17 10 -17 6 0 10 30 10 69 0 58 -4 74 -22 95 -28 32 -73 40 -113 22z m113
-113 c5 -32 -31 -63 -72 -63 -38 0 -66 21 -66 50 0 28 28 40 85 37 43 -2 50
-5 53 -24z"/>
<path d="M7433 710 c-17 -10 -37 -29 -43 -41 -15 -27 -7 -93 14 -114 56 -56
161 -31 179 43 10 40 -11 89 -47 111 -41 26 -62 26 -103 1z m108 -29 c33 -33
37 -65 12 -101 -23 -34 -33 -40 -70 -40 -78 0 -117 97 -59 146 38 33 80 31
117 -5z"/>
<path d="M7740 713 c-17 -12 -25 -13 -28 -5 -2 7 -7 12 -10 12 -10 0 -9 -177
1 -186 4 -4 7 22 7 59 0 36 3 73 6 82 9 22 59 46 81 38 44 -15 53 -33 53 -110
0 -42 4 -73 10 -73 11 0 14 111 4 148 -7 24 -50 52 -81 52 -10 0 -29 -8 -43
-17z"/>
<path d="M8015 716 c-29 -14 -28 -14 23 -9 57 6 92 -12 92 -49 0 -16 -5 -18
-34 -12 -75 14 -136 -26 -122 -81 9 -36 69 -52 118 -32 27 12 38 12 42 4 2 -7
5 24 5 69 1 66 -2 84 -17 97 -26 24 -72 29 -107 13z m113 -112 c2 -14 -7 -29
-24 -43 -46 -36 -114 -22 -114 24 0 33 25 45 85 42 43 -2 50 -5 53 -23z"/>
<path d="M4916 649 c19 -39 39 -82 44 -95 5 -13 14 -24 20 -24 6 0 26 35 46
78 20 42 41 85 46 95 5 10 5 17 -1 17 -5 0 -19 -21 -31 -47 -12 -27 -29 -66
-39 -88 l-19 -40 -41 88 c-23 48 -46 87 -51 87 -5 0 7 -32 26 -71z"/>
<path d="M7250 625 c0 -57 4 -95 10 -95 6 0 10 38 10 95 0 57 -4 95 -10 95 -6
0 -10 -38 -10 -95z"/>
<path d="M6627 413 c-4 -3 -7 -30 -7 -60 l0 -53 -32 20 c-40 24 -60 25 -99 4
-76 -39 -66 -157 15 -184 38 -12 81 0 102 28 12 16 13 15 14 -5 0 -13 5 -23
10 -23 6 0 10 53 10 140 0 77 -1 140 -3 140 -2 0 -7 -3 -10 -7z m-32 -118 c17
-16 25 -35 25 -60 0 -93 -131 -118 -160 -30 -12 36 0 82 27 103 28 21 81 15
108 -13z"/>
<path d="M3310 274 l0 -136 89 4 c70 2 93 7 110 22 29 27 27 70 -5 95 -24 19
-25 22 -10 36 17 17 21 62 8 83 -12 18 -69 32 -134 32 l-58 0 0 -136z m164
103 c12 -9 17 -23 14 -47 -3 -29 -8 -35 -36 -42 -19 -5 -55 -8 -80 -6 l-47 3
-3 53 -3 52 69 0 c40 0 75 -5 86 -13z m-4 -120 c29 -10 36 -18 38 -43 4 -45
-16 -56 -106 -58 l-77 -1 -3 44 c-2 24 -1 50 2 57 7 18 96 18 146 1z"/>
<path d="M4180 400 c0 -5 5 -10 10 -10 6 0 10 5 10 10 0 6 -4 10 -10 10 -5 0
-10 -4 -10 -10z"/>
<path d="M5651 394 c-20 -34 -121 -245 -121 -252 1 -12 40 42 40 56 0 9 25 12
93 12 l93 0 14 -35 c8 -19 17 -35 22 -35 12 0 12 0 -52 131 -68 141 -74 149
-89 123z m54 -86 l34 -73 -71 -3 c-39 -2 -72 -1 -75 2 -5 5 65 146 72 146 3 0
21 -33 40 -72z"/>
<path d="M3952 324 c-24 -16 -30 -58 -10 -71 7 -4 33 -15 58 -23 48 -16 61
-39 39 -66 -13 -16 -65 -16 -101 0 -10 5 -18 4 -18 -2 0 -5 21 -15 46 -22 41
-12 48 -11 72 7 15 11 29 28 30 37 5 22 -26 56 -50 56 -28 0 -78 28 -78 44 0
27 29 39 78 33 44 -6 46 -6 22 8 -33 19 -60 19 -88 -1z"/>
<path d="M4366 324 c-24 -13 -30 -14 -37 -2 -5 7 -8 -28 -7 -87 1 -95 1 -97 8
-35 8 81 15 97 51 115 33 18 72 7 88 -24 6 -11 11 -49 11 -85 0 -37 4 -66 10
-66 13 0 13 94 0 141 -15 55 -68 73 -124 43z"/>
<path d="M4655 328 c-34 -20 -54 -52 -55 -86 0 -81 70 -129 145 -98 21 9 36
19 32 22 -3 3 -14 1 -25 -5 -35 -19 -86 -13 -110 12 -12 13 -22 31 -22 40 0
15 12 17 85 17 92 0 97 3 73 55 -21 46 -81 67 -123 43z m94 -34 c37 -47 29
-54 -54 -54 -84 0 -95 12 -53 57 30 33 80 31 107 -3z"/>
<path d="M4912 324 c-24 -16 -30 -58 -10 -71 7 -4 33 -15 58 -23 34 -11 46
-21 48 -39 2 -13 -2 -28 -10 -32 -18 -12 -66 -11 -90 2 -11 6 -22 8 -25 5 -4
-3 11 -13 31 -21 50 -21 101 -6 111 32 7 30 -17 63 -47 63 -28 0 -78 28 -78
44 0 27 29 39 78 33 46 -5 46 -5 17 8 -39 18 -56 18 -83 -1z"/>
<path d="M5152 324 c-12 -8 -22 -26 -22 -40 0 -24 7 -29 93 -63 30 -12 36 -41
12 -61 -15 -12 -64 -10 -97 5 -11 4 -18 3 -18 -3 0 -10 46 -25 80 -27 29 -2
61 19 66 42 8 30 -10 51 -55 63 -56 15 -79 35 -65 57 9 14 23 18 65 16 50 -1
52 0 29 13 -33 18 -61 17 -88 -2z"/>
<path d="M5945 328 c-41 -23 -55 -46 -55 -93 0 -30 6 -52 18 -65 39 -42 115
-48 144 -12 11 14 11 15 -7 7 -11 -4 -37 -10 -57 -13 -97 -11 -121 134 -28
167 22 7 36 6 64 -9 20 -10 36 -14 36 -9 0 12 -55 39 -77 39 -10 0 -27 -6 -38
-12z"/>
<path d="M6215 333 c-42 -10 -34 -20 13 -15 41 4 53 1 71 -17 35 -35 28 -52
-18 -45 -78 12 -141 -31 -119 -82 10 -22 47 -44 74 -44 8 0 29 7 46 16 25 13
32 14 39 2 10 -15 12 121 3 147 -7 17 -55 46 -76 44 -7 -1 -22 -3 -33 -6z
m101 -108 c9 -22 -22 -64 -51 -71 -60 -15 -107 24 -79 64 12 18 25 22 70 22
39 0 56 -4 60 -15z"/>
<path d="M6801 326 c-31 -17 -50 -53 -51 -94 0 -74 71 -118 144 -87 21 9 36
19 33 21 -3 3 -14 1 -25 -5 -26 -14 -77 -14 -102 -1 -10 5 -23 23 -28 40 l-11
30 85 0 84 0 0 29 c0 20 -9 37 -31 55 -34 29 -62 32 -98 12z m99 -34 c36 -44
28 -52 -55 -52 -65 0 -75 2 -75 18 0 24 11 39 43 55 35 18 62 12 87 -21z"/>
<path d="M7090 323 c-17 -12 -25 -13 -28 -5 -2 7 -8 12 -13 12 -5 0 -9 -43 -9
-95 0 -57 4 -95 10 -95 6 0 10 31 10 73 0 78 10 97 57 111 17 5 29 1 48 -18
22 -22 25 -34 25 -96 0 -40 4 -70 10 -70 6 0 10 31 10 74 0 69 2 76 26 95 33
26 45 26 75 2 20 -16 25 -31 30 -98 l6 -78 1 78 c2 71 0 80 -23 102 -30 30
-64 32 -99 4 l-26 -20 -26 20 c-32 25 -52 26 -84 4z"/>
<path d="M3642 260 c-2 -87 11 -115 58 -125 22 -5 40 -1 65 13 31 19 34 19 38
4 3 -9 4 28 4 83 0 98 0 99 -6 27 -5 -61 -10 -77 -30 -93 -27 -22 -69 -25 -96
-5 -14 10 -20 32 -25 92 l-7 79 -1 -75z"/>
<path d="M4180 235 c0 -57 4 -95 10 -95 6 0 10 38 10 95 0 57 -4 95 -10 95 -6
0 -10 -38 -10 -95z"/>
<path d="M7457 314 c3 -9 23 -50 45 -91 21 -41 38 -80 38 -87 0 -21 -35 -46
-65 -46 -33 0 -29 -9 7 -15 22 -4 68 21 68 38 0 3 17 43 39 89 40 88 55 128
48 128 -5 0 -31 -53 -63 -127 -9 -23 -21 -40 -24 -38 -4 3 -25 41 -46 85 -20
44 -41 80 -45 80 -5 0 -6 -7 -2 -16z"/>
</g>
</svg>
